<svg width="32" height="32" viewBox="0 0 32 32" fill="none" xmlns="http://www.w3.org/2000/svg">
<g clip-path="url(#clip0_1_4)">
<path d="M26 0H6C2.68629 0 0 2.68629 0 6V26C0 29.3137 2.68629 32 6 32H26C29.3137 32 32 29.3137 32 26V6C32 2.68629 29.3137 0 26 0Z" fill="#10B981"/>
<path d="M22.9333 6H10.1333H9.06667C8.47757 6 8 6.44772 8 7V26L10.6667 24L13.3333 26L16 24L18.6667 26L21.3333 24L24 26V7C24 6.44772 23.5225 6 22.9333 6Z" fill="white"/>
<path d="M16 11V12.5M16 19.5V21M18.4 14.5C18.4 13.6716 17.5941 13 16.6 13H14.8C13.8059 13 13 13.6716 13 14.5C13 15.3284 13.8059 16 14.8 16H17.2C18.1941 16 19 16.6716 19 17.5C19 18.3284 18.1941 19 17.2 19H15.4C14.4059 19 13.6 18.3284 13.6 17.5" stroke="#10B981"/>
<path d="M11 21H14" stroke="#10B981"/>
<path d="M18 21H21" stroke="#10B981"/>
</g>
<defs>
<clipPath id="clip0_1_4">
<rect width="32" height="32" fill="white"/>
</clipPath>
</defs>
</svg>
